<?xml version="1.0" encoding="utf-8"?>
<!-- Generator: Adobe Illustrator 16.0.0, SVG Export Plug-In . SVG Version: 6.00 Build 0)  -->
<!DOCTYPE svg PUBLIC "-//W3C//DTD SVG 1.1//EN" "http://www.w3.org/Graphics/SVG/1.1/DTD/svg11.dtd">
<svg version="1.1" xmlns="http://www.w3.org/2000/svg" xmlns:xlink="http://www.w3.org/1999/xlink" x="0px" y="0px"
	 width="37.979px" height="23.771px" viewBox="0 0 37.979 23.771" enable-background="new 0 0 37.979 23.771" xml:space="preserve">
<g id="BG">
</g>
<g id="objects">
	<g id="XMLID_6721_">
		<path id="XMLID_6741_" fill="#FFFFFF" d="M15.568,17.959c-0.279-0.047-0.506-0.134-0.674-0.258
			c-0.17-0.126-0.308-0.28-0.411-0.459c-0.104-0.181-0.174-0.385-0.209-0.607c-0.037-0.229-0.051-0.47-0.043-0.716
			c0.006-0.183,0.026-0.368,0.058-0.551c0.026-0.153,0.053-0.304,0.08-0.453c1.046-0.167,2.089-0.299,3.104-0.394
			c1.051-0.096,2.186-0.152,3.344-0.166c0.104,0.015,0.191-0.002,0.256-0.058c0.045-0.036,0.098-0.105,0.103-0.227
			c0.004-0.118-0.041-0.191-0.079-0.232c-0.058-0.061-0.137-0.094-0.244-0.098c-0.004,0-0.008,0-0.012,0
			c-1.18,0-2.314,0.049-3.368,0.147c-0.972,0.09-1.954,0.215-2.924,0.373c0.025-0.098,0.016-0.183-0.027-0.253
			c-0.03-0.047-0.088-0.107-0.204-0.128c-0.175-0.033-0.309,0.044-0.368,0.196c-0.034,0.078-0.057,0.155-0.067,0.228
			c-0.003,0.021-0.008,0.043-0.015,0.066c-0.362,0.062-0.724,0.127-1.086,0.195l-0.063,0.013c-0.076-0.386-0.291-0.711-0.64-0.97
			c-0.435-0.322-1.006-0.578-1.696-0.76c-0.676-0.179-1.451-0.312-2.303-0.396c-0.836-0.081-1.685-0.152-2.519-0.208
			c-0.63-0.048-1.25-0.101-1.859-0.155c-0.598-0.053-1.143-0.13-1.619-0.226c-0.465-0.094-0.844-0.211-1.128-0.349
			c-0.313-0.153-0.344-0.315-0.34-0.424c0.016-0.458,0.208-0.921,0.57-1.374C1.561,9.247,2.06,8.802,2.669,8.391
			c0.614-0.415,1.326-0.803,2.113-1.153c0.788-0.35,1.615-0.652,2.461-0.895c0.851-0.244,1.699-0.434,2.522-0.563
			c0.824-0.13,1.59-0.183,2.274-0.16c0.436,0.015,0.838,0.093,1.197,0.234c0.359,0.139,0.679,0.328,0.951,0.56
			c0.273,0.233,0.502,0.503,0.683,0.801c0.182,0.303,0.32,0.625,0.41,0.958c0.045,0.182,0.188,0.273,0.369,0.241
			c0.112-0.02,0.172-0.079,0.203-0.124c0.047-0.071,0.061-0.159,0.038-0.263c0-0.001-0.001-0.003-0.001-0.005
			c-0.099-0.395-0.259-0.775-0.477-1.132c-0.218-0.355-0.49-0.677-0.809-0.954c-0.322-0.278-0.701-0.501-1.128-0.662
			c-0.426-0.161-0.902-0.252-1.416-0.27c-0.736-0.024-1.545,0.032-2.41,0.172C8.788,5.314,7.905,5.52,7.026,5.786
			C6.148,6.052,5.285,6.375,4.461,6.745C3.634,7.116,2.889,7.534,2.242,7.986C1.59,8.443,1.056,8.932,0.655,9.438
			c-0.414,0.524-0.634,1.073-0.654,1.63c-0.013,0.37,0.153,0.671,0.493,0.896c0.307,0.203,0.725,0.364,1.24,0.479
			c0.504,0.112,1.093,0.198,1.75,0.255c0.65,0.056,1.333,0.109,2.045,0.161c0.821,0.055,1.642,0.121,2.44,0.195
			c0.799,0.074,1.527,0.19,2.164,0.344c0.624,0.151,1.131,0.358,1.507,0.615c0.266,0.181,0.421,0.405,0.474,0.679l-0.534,0.101
			c-0.128,0.013-0.197,0.071-0.231,0.118c-0.035,0.048-0.071,0.131-0.043,0.261c0.026,0.125,0.094,0.188,0.146,0.216
			c0.076,0.043,0.167,0.048,0.25,0.02c0.121-0.025,0.235-0.045,0.354-0.069c-0.096,0.282-0.279,0.579-0.561,0.891
			c-0.427,0.475-0.96,0.918-1.585,1.317c-0.625,0.398-1.307,0.729-2.027,0.981c-0.714,0.249-1.364,0.368-1.929,0.345
			c-0.29-0.01-0.495-0.088-0.626-0.24c-0.134-0.155-0.196-0.341-0.188-0.569c0.01-0.281,0.113-0.598,0.307-0.942
			c0.195-0.347,0.488-0.673,0.848-0.953c0.145-0.081,0.192-0.235,0.118-0.396c-0.046-0.103-0.12-0.142-0.172-0.157
			c-0.086-0.025-0.177-0.003-0.284,0.068c-0.457,0.359-0.81,0.75-1.048,1.163c-0.242,0.417-0.372,0.819-0.384,1.195
			c-0.013,0.391,0.099,0.728,0.332,1.002c0.237,0.278,0.6,0.428,1.077,0.445c0.043,0.001,0.089,0.002,0.134,0.002
			c0.393,0,0.82-0.058,1.271-0.172c0.494-0.125,0.994-0.302,1.487-0.524c0.49-0.221,0.974-0.483,1.44-0.78
			c0.468-0.298,0.887-0.615,1.245-0.944c0.363-0.332,0.66-0.68,0.881-1.035c0.177-0.284,0.288-0.562,0.335-0.83
			c0.039-0.007,0.081-0.016,0.119-0.023c0.29-0.053,0.579-0.106,0.865-0.159c-0.053,0.297-0.084,0.588-0.094,0.87
			c-0.01,0.293,0.007,0.586,0.053,0.872c0.047,0.294,0.14,0.567,0.276,0.811c0.138,0.246,0.334,0.461,0.584,0.638
			c0.251,0.178,0.566,0.295,0.938,0.352c0.024,0.003,0.047,0.005,0.069,0.005c0.157,0,0.275-0.089,0.313-0.244
			c0.028-0.111-0.003-0.189-0.034-0.236C15.765,18.021,15.681,17.975,15.568,17.959z"/>
		<path id="XMLID_6737_" fill="#FFFFFF" d="M29.683,15.51c0.031,0.017,0.075,0.034,0.132,0.034c0.026,0,0.055-0.004,0.086-0.012
			l0.59-0.122c0.18-0.045,0.273-0.186,0.241-0.369c-0.021-0.112-0.079-0.172-0.124-0.203c-0.071-0.047-0.159-0.06-0.262-0.039
			l-0.604,0.125c-0.167,0.05-0.246,0.198-0.201,0.378C29.565,15.4,29.613,15.47,29.683,15.51z"/>
		<path id="XMLID_6722_" fill="#FFFFFF" d="M37.966,17.266c-0.031-0.113-0.093-0.169-0.14-0.195
			c-0.046-0.025-0.122-0.048-0.229-0.017c-0.591,0.188-1.309,0.271-2.131,0.239c-0.25-0.008-0.503-0.027-0.751-0.056
			c-0.238-0.027-0.471-0.069-0.69-0.125c0.006-0.053-0.003-0.11-0.027-0.173c-0.081-0.21-0.248-0.245-0.379-0.207
			c-0.004,0.001-0.008,0.002-0.012,0.004c-0.12,0.045-0.229,0.117-0.328,0.21c-0.247,0.13-0.522,0.253-0.821,0.365
			c-0.308,0.114-0.622,0.214-0.933,0.295c-0.308,0.081-0.619,0.144-0.925,0.186c-0.3,0.041-0.577,0.059-0.82,0.05
			c-0.206-0.007-0.353-0.071-0.45-0.198c-0.093-0.119-0.104-0.28-0.028-0.506c0.028-0.119-0.013-0.272-0.214-0.342
			c-0.118-0.041-0.207-0.021-0.273,0.022c-0.022,0.007-0.042,0.007-0.066,0.019c-0.565,0.271-1.021,0.459-1.356,0.558
			c-0.327,0.097-0.665,0.142-1.011,0.128c-0.249-0.009-0.417-0.115-0.528-0.336c-0.125-0.246-0.181-0.594-0.165-1.034
			c0.018-0.522,0.134-1.17,0.34-1.913c0.062-0.164-0.008-0.316-0.177-0.387c-0.088-0.037-0.171-0.04-0.244-0.009
			c-0.047,0.021-0.113,0.067-0.144,0.154c-0.285,0.585-0.592,1.101-0.916,1.536c-0.231,0.312-0.465,0.586-0.699,0.822
			c-0.004-0.009-0.009-0.018-0.015-0.025c-0.046-0.071-0.124-0.116-0.23-0.133c-0.007-0.001-0.014-0.002-0.021-0.002
			c-0.259-0.01-0.517,0.022-0.77,0.092c-0.251,0.069-0.481,0.166-0.686,0.287c-0.038,0.023-0.069,0.049-0.104,0.073
			c-0.074,0.039-0.158,0.081-0.265,0.125c-0.168,0.071-0.359,0.14-0.568,0.207s-0.414,0.122-0.608,0.167
			c-0.188,0.043-0.358,0.064-0.504,0.058c-0.24-0.008-0.426-0.07-0.552-0.183c-0.145-0.129-0.272-0.278-0.381-0.447
			c-0.086-0.127-0.185-0.192-0.294-0.195c-0.077-0.002-0.178,0.024-0.278,0.157c-0.158,0.209-0.346,0.394-0.561,0.551
			c-0.167,0.122-0.318,0.191-0.452,0.206c0.004-0.067,0.016-0.145,0.034-0.231c0.022-0.103,0.055-0.213,0.096-0.325
			s0.083-0.205,0.128-0.29c0.063-0.145,0.012-0.289-0.132-0.375c-0.15-0.089-0.307-0.055-0.398,0.086
			c-0.006,0.009-0.011,0.018-0.015,0.028c-0.044,0.107-0.098,0.247-0.158,0.416c-0.063,0.175-0.109,0.351-0.136,0.52
			c-0.03,0.189-0.019,0.357,0.034,0.499c0.039,0.104,0.149,0.28,0.458,0.291c0.011,0,0.022,0,0.033,0c0.255,0,0.525-0.1,0.804-0.298
			c0.198-0.14,0.365-0.279,0.499-0.413c0.109,0.122,0.243,0.239,0.4,0.35c0.236,0.167,0.521,0.257,0.849,0.269
			c0.177,0.006,0.38-0.015,0.625-0.063c0.236-0.047,0.47-0.105,0.696-0.172c0.007-0.001,0.013-0.004,0.019-0.006
			c0.011,0.117,0.055,0.22,0.132,0.304c0.096,0.103,0.222,0.158,0.375,0.164c0.491,0.013,1.049-0.203,1.696-0.651
			c0.503-0.348,1.001-0.868,1.488-1.553c-0.007,0.099-0.013,0.195-0.016,0.289c-0.02,0.579,0.067,1.052,0.257,1.405
			c0.207,0.384,0.553,0.586,1.031,0.603c0.042,0.002,0.083,0.002,0.125,0.002c0.35,0,0.7-0.051,1.043-0.152
			c0.289-0.085,0.652-0.227,1.086-0.423c0.017,0.176,0.078,0.333,0.184,0.468c0.212,0.267,0.535,0.41,0.96,0.425
			c0.05,0.002,0.1,0.002,0.152,0.002c0.235,0,0.493-0.018,0.765-0.054c0.333-0.044,0.67-0.108,1.004-0.19
			c0.339-0.085,0.679-0.191,1.008-0.315c0.045-0.017,0.088-0.037,0.132-0.055c-0.022,0.166-0.012,0.323,0.036,0.468
			c0.041,0.125,0.161,0.338,0.508,0.35c0.01,0,0.021,0,0.031,0c0.275,0,0.494-0.131,0.635-0.38c0.09-0.162,0.147-0.321,0.171-0.478
			c0.144,0.021,0.302,0.04,0.473,0.055c0.239,0.022,0.5,0.038,0.774,0.047c0.916,0.031,1.697-0.053,2.344-0.26
			C37.945,17.577,38.011,17.434,37.966,17.266z M33.467,17.807c0.026-0.068,0.058-0.137,0.097-0.203
			c-0.003,0.11-0.026,0.213-0.07,0.31c-0.025,0.054-0.052,0.096-0.078,0.118C33.418,17.966,33.436,17.891,33.467,17.807z
			 M22.038,17.427c0.017-0.029,0.043-0.064,0.082-0.105c0.021-0.021,0.046-0.04,0.069-0.059c0.12-0.061,0.226-0.12,0.305-0.175
			c0.023-0.016,0.036-0.033,0.053-0.05c0.137-0.063,0.286-0.118,0.45-0.161c0.109-0.028,0.218-0.048,0.326-0.058
			c-0.231,0.181-0.455,0.323-0.667,0.424C22.431,17.352,22.224,17.413,22.038,17.427z M23.572,16.363L23.572,16.363L23.572,16.363
			L23.572,16.363z"/>
	</g>
	<g>
		<g>
			<path fill="#FFFFFF" d="M27.359,7.639c0.686-1.665,2.33-3.483,2.831-4.016v-0.57l-0.147,0.148
				c-0.106,0.107-2.034,2.07-2.937,4.014c-0.074,0.16-0.141,0.319-0.2,0.477c-0.161,0.435-0.259,0.861-0.259,1.257
				c0,2.726,3.092,3.233,3.123,3.238l0.235,0.036l-0.413-0.471c-0.683-0.167-2.54-0.808-2.54-2.804c0-0.281,0.057-0.582,0.154-0.894
				C27.228,7.988,27.342,7.693,27.359,7.639z"/>
			<path fill="#FFFFFF" d="M30.124,12.288l-0.36-0.055c-0.032-0.005-3.162-0.521-3.162-3.284c0-0.374,0.089-0.803,0.263-1.272
				c0.058-0.156,0.125-0.317,0.201-0.48c0.909-1.957,2.863-3.942,2.945-4.026l0.225-0.227v0.698l-0.012,0.013
				c-0.489,0.52-2.137,2.343-2.822,4.002c-0.007,0.022-0.036,0.101-0.067,0.185C27.3,7.932,27.261,8.034,27.251,8.07
				c-0.101,0.321-0.152,0.617-0.152,0.879c0,1.935,1.751,2.575,2.504,2.76l0.014,0.003L30.124,12.288z M30.144,3.164l-0.069,0.071
				c-0.082,0.083-2.025,2.058-2.927,4c-0.074,0.16-0.141,0.319-0.198,0.474c-0.17,0.46-0.257,0.877-0.257,1.24
				c0,2.686,3.053,3.188,3.084,3.193l0.111,0.018l-0.321-0.365c-0.62-0.156-2.56-0.805-2.56-2.845c0-0.272,0.053-0.577,0.156-0.907
				c0.012-0.038,0.049-0.137,0.085-0.233c0.031-0.082,0.06-0.158,0.067-0.183c0.686-1.665,2.323-3.481,2.829-4.021V3.164z"/>
		</g>
		<g>
			<path fill="#FFFFFF" d="M25.27,8.012c0-0.828,0.149-1.75,0.801-2.788c0.05-0.396,0.145-0.784,0.306-1.15
				C25.137,5.482,24.845,7,24.845,8.012c0,3.606,3.13,5.229,5.354,5.229v-0.407C28.151,12.834,25.27,11.338,25.27,8.012z"/>
			<path fill="#FFFFFF" d="M30.243,13.287h-0.045c-2.242,0-5.399-1.637-5.399-5.275c0-0.827,0.2-2.442,1.543-3.969l0.195-0.221
				l-0.119,0.27c-0.148,0.338-0.25,0.722-0.302,1.138l-0.006,0.019c-0.549,0.875-0.794,1.728-0.794,2.764
				c0,3.295,2.855,4.777,4.883,4.777h0.045V13.287z M26.232,4.315c-1.163,1.439-1.342,2.92-1.342,3.697
				c0,3.551,3.062,5.161,5.262,5.184V12.88c-2.063-0.021-4.929-1.535-4.929-4.868c0-0.652,0.084-1.653,0.803-2.804
				C26.066,4.891,26.135,4.591,26.232,4.315z"/>
		</g>
		<g>
			<path fill="#FFFFFF" d="M30.19,0.605v-0.51l-0.13,0.104c-0.037,0.029-0.911,0.732-1.799,1.75
				c-1.208,1.384-1.821,2.624-1.821,3.686c0,0.222,0.008,0.444,0.031,0.665c0.019,0.189,0.049,0.38,0.094,0.567
				c0.041,0.165,0.093,0.327,0.162,0.484c0.046,0.107,0.096,0.208,0.161,0.306c0.059,0.092,0.125,0.178,0.198,0.26
				c0.153,0.174,0.333,0.315,0.521,0.454c0.097,0.07,0.197,0.144,0.288,0.221c1.042,0.876,1.625,1.963,1.698,3.157l0.413,0.471
				v-0.229c-0.004-1.403-0.641-2.679-1.843-3.69c-0.102-0.086-0.207-0.163-0.309-0.238c-0.091-0.067-0.182-0.134-0.269-0.206
				c-0.042-0.035-0.083-0.071-0.123-0.109c-0.02-0.02-0.038-0.039-0.057-0.058c-0.064-0.07-0.121-0.146-0.171-0.225
				c-0.052-0.081-0.09-0.166-0.129-0.253c-0.179-0.401-0.261-0.905-0.261-1.577C26.846,3.566,29.559,1.142,30.19,0.605z"/>
			<path fill="#FFFFFF" d="M30.052,12.341l-0.505-0.573l-0.001-0.016c-0.071-1.179-0.652-2.259-1.681-3.124
				c-0.089-0.076-0.188-0.148-0.283-0.218c-0.214-0.156-0.384-0.293-0.532-0.462c-0.073-0.084-0.141-0.173-0.202-0.265
				c-0.072-0.109-0.126-0.225-0.165-0.313c-0.066-0.151-0.122-0.317-0.164-0.492c-0.043-0.178-0.075-0.365-0.096-0.574
				c-0.021-0.206-0.031-0.425-0.031-0.669c0-1.073,0.616-2.324,1.833-3.716c0.898-1.03,1.796-1.748,1.805-1.754L30.235,0v0.627
				L30.22,0.641c-0.556,0.471-3.328,2.93-3.328,4.994c0,0.67,0.081,1.165,0.256,1.559c0.04,0.09,0.078,0.171,0.126,0.247
				c0.052,0.081,0.108,0.154,0.166,0.219c0.018,0.019,0.036,0.038,0.055,0.056c0.036,0.035,0.075,0.071,0.12,0.107
				c0.084,0.07,0.174,0.136,0.261,0.2l-0.02,0.042l0.027-0.037c0.103,0.075,0.208,0.152,0.31,0.239
				c1.213,1.02,1.855,2.308,1.859,3.725L30.052,12.341z M29.637,11.73l0.324,0.368l0-0.107c-0.003-1.389-0.635-2.654-1.826-3.656
				c-0.1-0.084-0.205-0.16-0.305-0.234l-0.008-0.006c-0.088-0.064-0.179-0.132-0.265-0.203c-0.046-0.038-0.087-0.075-0.125-0.112
				c-0.02-0.02-0.04-0.039-0.058-0.06c-0.063-0.068-0.122-0.146-0.176-0.231c-0.052-0.082-0.09-0.166-0.132-0.259
				C26.884,6.825,26.8,6.317,26.8,5.635c0-2.085,2.748-4.542,3.344-5.051V0.19l-0.056,0.044c-0.009,0.007-0.9,0.72-1.793,1.744
				c-1.2,1.375-1.81,2.605-1.81,3.656c0,0.241,0.01,0.457,0.03,0.66c0.021,0.204,0.052,0.388,0.094,0.561
				c0.042,0.17,0.096,0.331,0.16,0.477c0.037,0.084,0.088,0.195,0.157,0.3c0.058,0.088,0.123,0.174,0.194,0.255
				c0.142,0.162,0.309,0.295,0.514,0.446c0.099,0.073,0.199,0.146,0.291,0.224C28.968,9.436,29.56,10.532,29.637,11.73z"/>
		</g>
		<g>
			<path fill="#FFFFFF" d="M33.006,7.639c-0.686-1.665-2.33-3.483-2.831-4.016v-0.57l0.147,0.148
				c0.105,0.107,2.034,2.07,2.936,4.014c0.074,0.16,0.141,0.319,0.199,0.477c0.161,0.435,0.26,0.861,0.26,1.257
				c0,2.726-3.091,3.233-3.123,3.238l-0.236,0.036l0.414-0.471c0.682-0.167,2.539-0.808,2.539-2.804
				c0-0.281-0.056-0.582-0.154-0.894C33.138,7.988,33.023,7.693,33.006,7.639z"/>
			<path fill="#FFFFFF" d="M30.242,12.288l0.507-0.576l0.014-0.003c0.753-0.185,2.504-0.825,2.504-2.76
				c0-0.263-0.051-0.559-0.152-0.879c-0.01-0.036-0.049-0.138-0.083-0.228C33,7.758,32.971,7.679,32.963,7.652
				c-0.683-1.655-2.332-3.479-2.82-3.998L30.13,3.641V2.943l0.226,0.227c0.083,0.084,2.037,2.07,2.945,4.026
				c0.075,0.163,0.143,0.324,0.201,0.48c0.174,0.47,0.262,0.898,0.262,1.272c0,2.764-3.13,3.278-3.161,3.284L30.242,12.288z
				 M30.799,11.794l-0.322,0.365l0.112-0.018c0.03-0.004,3.084-0.507,3.084-3.193c0-0.363-0.087-0.78-0.257-1.24
				c-0.057-0.154-0.124-0.313-0.198-0.474c-0.902-1.943-2.845-3.918-2.927-4l-0.069-0.071v0.441c0.506,0.54,2.143,2.356,2.828,4.017
				c0.009,0.029,0.039,0.106,0.068,0.188c0.036,0.096,0.074,0.195,0.085,0.232c0.104,0.33,0.156,0.635,0.156,0.907
				C33.358,10.989,31.418,11.639,30.799,11.794z"/>
		</g>
		<g>
			<path fill="#FFFFFF" d="M35.112,8.012c0-0.828-0.15-1.75-0.802-2.788c-0.049-0.396-0.145-0.784-0.306-1.15
				c1.24,1.409,1.532,2.927,1.532,3.938c0,3.606-3.13,5.229-5.354,5.229v-0.407C32.229,12.834,35.112,11.338,35.112,8.012z"/>
			<path fill="#FFFFFF" d="M30.137,13.287v-0.498h0.045c2.028,0,4.883-1.482,4.883-4.777c0-1.036-0.245-1.889-0.793-2.764
				l-0.007-0.019c-0.052-0.417-0.153-0.8-0.302-1.138l-0.119-0.27l0.195,0.221c1.343,1.526,1.543,3.142,1.543,3.969
				c0,3.638-3.157,5.275-5.399,5.275H30.137z M30.229,12.88v0.315c2.201-0.022,5.262-1.633,5.262-5.184
				c0-0.776-0.179-2.258-1.341-3.697c0.096,0.276,0.165,0.576,0.205,0.893c0.719,1.151,0.802,2.151,0.802,2.804
				C35.157,11.345,32.291,12.858,30.229,12.88z"/>
		</g>
		<g>
			<path fill="#FFFFFF" d="M30.176,0.605v-0.51l0.13,0.104c0.037,0.029,0.911,0.732,1.799,1.75c1.208,1.384,1.821,2.624,1.821,3.686
				c0,0.222-0.008,0.444-0.03,0.665c-0.02,0.189-0.049,0.38-0.095,0.567c-0.041,0.165-0.093,0.327-0.162,0.484
				c-0.047,0.107-0.097,0.208-0.161,0.306c-0.059,0.092-0.125,0.178-0.197,0.26c-0.153,0.174-0.333,0.315-0.521,0.454
				c-0.097,0.07-0.196,0.144-0.288,0.221c-1.042,0.876-1.625,1.963-1.697,3.157l-0.414,0.471l0-0.229
				c0.003-1.403,0.641-2.679,1.843-3.69c0.102-0.086,0.207-0.163,0.309-0.238c0.091-0.067,0.183-0.134,0.269-0.206
				c0.042-0.035,0.083-0.071,0.122-0.109c0.019-0.02,0.039-0.039,0.057-0.058c0.064-0.07,0.12-0.146,0.17-0.225
				c0.052-0.081,0.09-0.166,0.129-0.253c0.178-0.401,0.261-0.905,0.261-1.577C33.52,3.566,30.808,1.142,30.176,0.605z"/>
			<path fill="#FFFFFF" d="M30.314,12.341v-0.35c0.003-1.417,0.646-2.705,1.859-3.725c0.101-0.086,0.206-0.162,0.307-0.236
				l0.01-0.008c0.087-0.063,0.177-0.13,0.262-0.2c0.044-0.037,0.084-0.072,0.12-0.107c0.019-0.019,0.037-0.037,0.055-0.056
				c0.059-0.064,0.114-0.138,0.166-0.219c0.049-0.076,0.084-0.153,0.125-0.247c0.175-0.393,0.257-0.889,0.257-1.559
				c0-2.064-2.773-4.523-3.329-4.994L30.13,0.627V0l0.204,0.164c0.037,0.029,0.909,0.728,1.806,1.754
				c1.215,1.392,1.832,2.643,1.832,3.716c0,0.244-0.01,0.463-0.031,0.669c-0.021,0.209-0.052,0.396-0.095,0.574
				c-0.043,0.175-0.098,0.341-0.165,0.492c-0.039,0.088-0.093,0.204-0.165,0.313c-0.06,0.092-0.128,0.181-0.202,0.265
				c-0.147,0.169-0.318,0.306-0.528,0.46c-0.097,0.072-0.196,0.145-0.286,0.22c-1.028,0.865-1.609,1.945-1.681,3.124l-0.001,0.016
				L30.314,12.341z M32.507,8.067l0.026,0.037c-0.099,0.073-0.202,0.149-0.301,0.232c-1.191,1.002-1.823,2.266-1.826,3.656l0,0.107
				l0.324-0.368c0.077-1.198,0.669-2.295,1.712-3.173c0.092-0.078,0.192-0.151,0.288-0.222c0.208-0.153,0.374-0.286,0.516-0.448
				c0.071-0.081,0.136-0.167,0.194-0.255c0.068-0.104,0.12-0.215,0.158-0.3c0.064-0.146,0.118-0.307,0.159-0.477
				c0.042-0.173,0.073-0.357,0.094-0.561c0.021-0.203,0.031-0.419,0.031-0.66c0-1.051-0.609-2.281-1.81-3.656
				c-0.891-1.021-1.756-1.714-1.793-1.744L30.221,0.19v0.394c0.596,0.509,3.345,2.966,3.345,5.051c0,0.683-0.084,1.19-0.265,1.596
				c-0.042,0.094-0.08,0.178-0.132,0.259c-0.055,0.085-0.114,0.163-0.176,0.231c-0.02,0.021-0.038,0.04-0.059,0.06
				c-0.038,0.037-0.078,0.074-0.125,0.112c-0.086,0.072-0.177,0.139-0.266,0.204L32.507,8.067z"/>
		</g>
	</g>
	<text transform="matrix(1 0 0 1 5.1855 22.9688)" fill="#FFFFFF" font-family="'Montserrat-Bold'" font-size="3.0141">IDEAS INDONESIA</text>
</g>
</svg>
